<svg width="112" height="30" viewBox="0 0 112 30" fill="none" xmlns="http://www.w3.org/2000/svg">
<path d="M16.8296 5.37891L7.90059 29.4741H0.900391L13.6504 0.0742188H20.4004L16.8296 5.37891ZM28.6504 29.4741L19.7214 5.37891L16.1504 0.0742188H22.9004L35.6504 29.4741H28.6504Z" fill="#F48023"/>
<path d="M46.1152 30C43.9902 30 42.0527 29.5898 40.3027 28.7695C38.5723 27.9297 37.1836 26.7383 36.1367 25.1953C35.1094 23.6328 34.5957 21.7539 34.5957 19.5586C34.5957 17.3633 35.1094 15.4941 36.1367 13.9512C37.1836 12.3887 38.5723 11.1973 40.3027 10.377C42.0527 9.53711 43.9902 9.11719 46.1152 9.11719C48.2402 9.11719 50.168 9.53711 51.8984 10.377C53.6484 11.1973 55.0371 12.3887 56.0645 13.9512C57.1113 15.4941 57.6348 17.3633 57.6348 19.5586C57.6348 21.7539 57.1113 23.6328 56.0645 25.1953C55.0371 26.7383 53.6484 27.9297 51.8984 28.7695C50.168 29.5898 48.2402 30 46.1152 30ZM46.1152 24.4922C47.4746 24.4922 48.5898 24.0039 49.4609 23.0273C50.3516 22.0312 50.7969 20.9453 50.7969 19.5586C50.7969 18.1719 50.3516 16.8438 49.4609 16.2305C48.5898 15.2539 47.4746 14.7656 46.1152 14.7656C44.7559 14.7656 43.6309 15.2539 42.7402 16.2305C41.8691 16.8438 41.4336 18.1719 41.4336 19.5586C41.4336 20.9453 41.8691 22.0312 42.7402 23.0273C43.6309 24.0039 44.7559 24.4922 46.1152 24.4922Z" fill="#1682FD"/>
<path d="M71.8008 9.64453V14.9414H61.4473V9.64453H71.8008ZM63.5527 4.32422H70.2129V23.7891C70.2129 24.2383 70.2812 24.5898 70.418 24.8438C70.5742 25.0781 70.7891 25.2441 71.0625 25.3418C71.3555 25.4199 71.6973 25.459 72.0879 25.459C72.3613 25.459 72.6445 25.4395 72.9375 25.4004C73.2305 25.3418 73.4551 25.293 73.6113 25.2539L74.7559 30.4004C74.4238 30.498 73.9746 30.6152 73.4082 30.752C72.8418 30.9082 72.168 31.0059 71.3867 31.0449C69.8242 31.123 68.4551 30.9668 67.2793 30.5762C66.123 30.1855 65.2129 29.5605 64.5488 28.7012C63.8848 27.8418 63.5625 26.748 63.5625 25.4199V4.32422H63.5527Z" fill="#1682FD"/>
<path d="M87.4395 30C85.3145 30 83.377 29.5898 81.627 28.7695C79.8965 27.9297 78.5078 26.7383 77.4609 25.1953C76.4336 23.6328 75.9199 21.7539 75.9199 19.5586C75.9199 17.3633 76.4336 15.4941 77.4609 13.9512C78.5078 12.3887 79.8965 11.1973 81.627 10.377C83.377 9.53711 85.3145 9.11719 87.4395 9.11719C89.5645 9.11719 91.4922 9.53711 93.2227 10.377C94.9727 11.1973 96.3613 12.3887 97.3887 13.9512C98.4355 15.4941 98.959 17.3633 98.959 19.5586C98.959 21.7539 98.4355 23.6328 97.3887 25.1953C96.3613 26.7383 94.9727 27.9297 93.2227 28.7695C91.4922 29.5898 89.5645 30 87.4395 30ZM87.4395 24.4922C88.7988 24.4922 89.9141 24.0039 90.7852 23.0273C91.6758 22.0312 92.1211 20.9453 92.1211 19.5586C92.1211 18.1719 91.6758 16.8438 90.7852 16.2305C89.9141 15.2539 88.7988 14.7656 87.4395 14.7656C86.0801 14.7656 84.9551 15.2539 84.0645 16.2305C83.1934 16.8438 82.7578 18.1719 82.7578 19.5586C82.7578 20.9453 83.1934 22.0312 84.0645 23.0273C84.9551 24.0039 86.0801 24.4922 87.4395 24.4922Z" fill="#1682FD"/>
<path d="M102.275 29.4741V9.64453H108.496L108.848 13.0723C109.688 11.8379 110.754 10.8711 112.045 10.1719C113.355 9.47266 114.861 9.12305 116.561 9.12305V15.6992H114.861C113.766 15.6992 112.797 15.8945 111.955 16.2852C111.115 16.6562 110.461 17.2617 109.992 18.1016C109.523 18.9414 109.289 20.0469 109.289 21.418V29.4785H102.275V29.4741Z" fill="#1682FD"/>
</svg>
